# xmcd
#
# Track frame offsets: 
#        150
#        25262
#        42855
#        57722
#        80137
#        94775
#        119625
#        142317
#        175747
#        195342
#        213680
#        240662
#        271952
#
# Disc length: 3924 seconds
#
# Revision: 0
# Processed by: cddbd v1.4PL0 Copyright (c) Steve Scherf et al.
# Submitted via: ExactAudioCopy v0.90b4
#
DISCID=c60f520d
DTITLE=Van Morrison - Every Night About This Time CD1
DYEAR=1997
DGENRE=Blues
TTITLE0=Rough God Goes Riding
TTITLE1=Foreign Window
TTITLE2=Tore Down A La Rimbaud
TTITLE3=Vanlose Stairway
TTITLE4=I'm A Fool For You
TTITLE5=Sometimes We Cry
TTITLE6=It Once Was My Life
TTITLE7=Not Feeling It Anymore
TTITLE8=This Weight
TTITLE9=Who Can I Turn To
TTITLE10=Fire In The Belly
TTITLE11=Tupelo Honey/Why Must I Always Explain
TTITLE12=Satisfied
EXTD=
EXTT0=
EXTT1=
EXTT2=
EXTT3=
EXTT4=
EXTT5=
EXTT6=
EXTT7=
EXTT8=
EXTT9=
EXTT10=
EXTT11=
EXTT12=
PLAYORDER=
